<?xml version="1.0" encoding="utf-8"?>
<!-- Generator: Adobe Illustrator 21.0.2, SVG Export Plug-In . SVG Version: 6.00 Build 0)  -->
<svg version="1.1" id="Capa_1" xmlns="http://www.w3.org/2000/svg" xmlns:xlink="http://www.w3.org/1999/xlink" x="0px" y="0px"
	 viewBox="0 0 58 58" style="enable-background:new 0 0 58 58;" xml:space="preserve">
<style type="text/css">
	.st0{fill:#0575E6;}
	.st1{fill:#00E1FF;}
</style>
<g>
	<path class="st0" d="M22.7,45.2c4.6,0,8.8-1.4,12.4-3.8l15.2,15.2c0.9,0.9,1.9,1.3,3,1.3s2.2-0.4,3-1.3c1.7-1.7,1.7-4.3,0-6
		L41.1,35.4c2.4-3.5,3.8-7.8,3.8-12.4c0-12.3-10-22.2-22.2-22.2S0.4,10.7,0.4,23S10.4,45.2,22.7,45.2z M55.2,51.7
		c1.1,1.1,1.1,2.9,0,4c-1.1,1.1-2.9,1.1-4,0l-15-15c1.5-1.1,2.8-2.5,4-4L55.2,51.7z M22.7,2.3c11.5,0,20.7,9.3,20.7,20.7
		s-9.3,20.8-20.7,20.8S1.9,34.5,1.9,23.1S11.2,2.3,22.7,2.3z"/>
	<path class="st0" d="M22.7,40.6c9.7,0,17.6-7.9,17.6-17.6S32.3,5.5,22.7,5.5S5.1,13.4,5.1,23.1S13,40.6,22.7,40.6z M22.7,6.9
		c8.9,0,16.1,7.2,16.1,16.1s-7.2,16.1-16.1,16.1S6.5,31.9,6.5,23.1S13.8,6.9,22.7,6.9z"/>
	<path class="st1" d="M12.1,23.2c0-5.8,4.7-10.4,10.4-10.4c0.4,0,0.7-0.3,0.7-0.7c0-0.4-0.3-0.7-0.7-0.7c-6.6,0-11.9,5.3-11.9,11.9
		c0,0.4,0.3,0.7,0.7,0.7C11.8,23.8,12.1,23.6,12.1,23.2z"/>
</g>
</svg>
