<?xml version="1.0" encoding="utf-8"?>
<!-- Generator: Adobe Illustrator 21.0.2, SVG Export Plug-In . SVG Version: 6.00 Build 0)  -->
<svg version="1.1" id="Capa_1" xmlns="http://www.w3.org/2000/svg" xmlns:xlink="http://www.w3.org/1999/xlink" x="0px" y="0px"
	 viewBox="0 0 58 58" style="enable-background:new 0 0 58 58;" xml:space="preserve">
<style type="text/css">
	.st0{fill:#FFFFFF;}
	.st1{fill:#0575E6;}
	.st2{fill:#00E1FF;}
</style>
<circle class="st0" cx="262.7" cy="94.3" r="75"/>
<g>
	<path class="st1" d="M34.3,53.3c-0.1,0-0.2,0-0.3-0.1l-33.7-19c-0.2-0.1-0.3-0.3-0.3-0.5V18.9c0-0.2,0.1-0.4,0.3-0.4
		c0.2-0.1,0.4-0.1,0.5,0l34,19.4c0.2,0.1,0.3,0.3,0.3,0.5l-0.3,14.4c0,0.2-0.1,0.3-0.3,0.4C34.5,53.2,34.4,53.3,34.3,53.3z
		 M1.1,33.5l32.7,18.4L34,38.6L1.1,19.8V33.5z"/>
	<g>
		<path class="st1" d="M34.7,53.2l-0.5-0.9l22.2-13.5L56.9,26L34.8,38.8l-0.5-0.9l22.9-13.3c0.2-0.1,0.4-0.1,0.5,0
			c0.2,0.1,0.3,0.3,0.2,0.5l-0.6,14c0,0.2-0.1,0.3-0.2,0.4L34.7,53.2z"/>
	</g>
	<path class="st1" d="M34.6,38.9c-0.2,0-0.4-0.1-0.4-0.3c-0.1-0.2-0.1-0.6,0.2-0.7l22.1-12.8L22.7,5.9L0.9,19.4
		c-0.2,0.2-0.6,0.1-0.7-0.2C0,19,0.1,18.6,0.3,18.5L22.4,4.8c0.2-0.1,0.4-0.1,0.5,0l34.8,19.8c0.2,0.1,0.3,0.3,0.3,0.4
		c0,0.2-0.1,0.4-0.3,0.4L34.8,38.8C34.7,38.8,34.7,38.9,34.6,38.9z"/>
	<g>
		<path class="st2" d="M23.2,29.3c-4.7,0-5.4-2.4-5.4-4.8c0-0.2-0.1-1.7,0.5-2.9l0.2-0.3l9.8,0.3l0.1,0.4c0,0,0.3,1,0.2,2.4
			C28.6,27,28.1,29.3,23.2,29.3z M19.1,22.5c-0.3,0.7-0.3,1.7-0.2,2l0,0.1c0,2,0.3,3.8,4.4,3.8c4,0,4.4-1.6,4.4-3.8l0,0
			c0-0.8,0-1.4-0.1-1.8L19.1,22.5z"/>
		<g>
			<ellipse class="st0" cx="23.2" cy="22.9" rx="4.8" ry="2.6"/>
			<path class="st2" d="M23.2,26c-3,0-5.3-1.4-5.3-3.1c0-1.7,2.3-3.1,5.3-3.1c3,0,5.3,1.4,5.3,3.1C28.6,24.6,26.2,26,23.2,26z
				 M23.2,20.8c-2.5,0-4.3,1.1-4.3,2.1c0,1,1.8,2.1,4.3,2.1c2.5,0,4.3-1.1,4.3-2.1C27.5,21.9,25.8,20.8,23.2,20.8z"/>
		</g>
	</g>
	<g>
		<path class="st2" d="M11,22.4c-4.7,0-5.4-2.4-5.4-4.8c0-0.2-0.1-1.7,0.5-2.9l0.2-0.3l9.8,0.3l0.1,0.4c0,0,0.3,1,0.2,2.4
			C16.4,20.1,16,22.4,11,22.4z M6.9,15.6c-0.3,0.7-0.3,1.7-0.2,2l0,0.1c0,2,0.3,3.8,4.4,3.8c4,0,4.4-1.6,4.4-3.8l0,0
			c0-0.8,0-1.4-0.1-1.8L6.9,15.6z"/>
		<g>
			<ellipse class="st0" cx="11.1" cy="16" rx="4.8" ry="2.6"/>
			<path class="st2" d="M11.1,19.1c-3,0-5.3-1.4-5.3-3.1s2.3-3.1,5.3-3.1s5.3,1.4,5.3,3.1S14,19.1,11.1,19.1z M11.1,13.9
				c-2.5,0-4.3,1.1-4.3,2.1S8.5,18,11.1,18s4.3-1.1,4.3-2.1S13.6,13.9,11.1,13.9z"/>
		</g>
	</g>
	<g>
		<path class="st2" d="M22.5,15.6c-4.7,0-5.4-2.4-5.4-4.8c0-0.2-0.1-1.7,0.5-2.9l0.2-0.3L27.5,8l0.1,0.4c0,0,0.3,1,0.2,2.4
			C27.8,13.2,27.4,15.6,22.5,15.6z M18.3,8.7c-0.3,0.7-0.3,1.7-0.2,2l0,0.1c0,2,0.3,3.8,4.4,3.8c4,0,4.4-1.6,4.4-3.8l0,0
			c0-0.8,0-1.4-0.1-1.8L18.3,8.7z"/>
		<g>
			<ellipse class="st0" cx="22.5" cy="9.1" rx="4.8" ry="2.6"/>
			<path class="st2" d="M22.5,12.2c-3,0-5.3-1.4-5.3-3.1S19.5,6,22.5,6c3,0,5.3,1.4,5.3,3.1S25.5,12.2,22.5,12.2z M22.5,7
				c-2.5,0-4.3,1.1-4.3,2.1s1.8,2.1,4.3,2.1c2.5,0,4.3-1.1,4.3-2.1S25,7,22.5,7z"/>
		</g>
	</g>
	<g>
		<path class="st2" d="M34.6,22.4c-4.7,0-5.4-2.4-5.4-4.8c0-0.2-0.1-1.7,0.5-2.9l0.2-0.3l9.8,0.3l0.1,0.4c0,0,0.3,1,0.2,2.4
			C40,20.1,39.5,22.4,34.6,22.4z M30.4,15.6c-0.3,0.9-0.2,2-0.2,2l0,0.1c0,2.1,0.3,3.8,4.3,3.8c4,0,4.4-1.6,4.4-3.8l0,0
			c0-0.8,0-1.4-0.1-1.8L30.4,15.6z"/>
		<g>
			<ellipse class="st0" cx="34.6" cy="16" rx="4.8" ry="2.6"/>
			<path class="st2" d="M34.6,19.1c-3,0-5.3-1.4-5.3-3.1s2.3-3.1,5.3-3.1c3,0,5.3,1.4,5.3,3.1S37.6,19.1,34.6,19.1z M34.6,13.9
				c-2.5,0-4.3,1.1-4.3,2.1s1.8,2.1,4.3,2.1s4.3-1.1,4.3-2.1S37.2,13.9,34.6,13.9z"/>
		</g>
	</g>
	<g>
		<path class="st2" d="M46,29.4c-4.7,0-5.4-2.4-5.4-4.8c0-0.2-0.1-1.7,0.5-2.9l0.2-0.3l9.8,0.3l0.1,0.4c0,0,0.3,1,0.2,2.4
			C51.4,27.1,51,29.4,46,29.4z M41.9,22.6c-0.3,0.7-0.3,1.7-0.2,2l0,0.1c0,2,0.3,3.8,4.4,3.8c4,0,4.3-1.6,4.3-3.8l0,0
			c0-0.8,0-1.4-0.1-1.8L41.9,22.6z"/>
		<g>
			<ellipse class="st0" cx="46.1" cy="23" rx="4.8" ry="2.6"/>
			<path class="st2" d="M46.1,26.1c-3,0-5.3-1.4-5.3-3.1c0-1.7,2.3-3.1,5.3-3.1s5.3,1.4,5.3,3.1C51.4,24.7,49.1,26.1,46.1,26.1z
				 M46.1,20.9c-2.5,0-4.3,1.1-4.3,2.1c0,1,1.8,2.1,4.3,2.1s4.3-1.1,4.3-2.1C50.4,22,48.6,20.9,46.1,20.9z"/>
		</g>
	</g>
	<g>
		<path class="st2" d="M34.6,36.2c-4.7,0-5.4-2.4-5.4-4.8c0-0.2-0.1-1.7,0.5-2.9l0.2-0.3l9.8,0.3l0.1,0.4c0,0,0.3,1,0.2,2.4
			C40,33.8,39.6,36.2,34.6,36.2z M30.5,29.3c-0.3,0.9-0.2,2-0.2,2l0,0.1c0,2,0.3,3.8,4.4,3.8c4,0,4.3-1.6,4.3-3.8l0,0
			c0-0.8,0-1.4-0.1-1.8L30.5,29.3z"/>
		<g>
			<ellipse class="st0" cx="34.7" cy="29.6" rx="4.8" ry="2.6"/>
			<path class="st2" d="M34.7,32.8c-3,0-5.3-1.4-5.3-3.1c0-1.7,2.3-3.1,5.3-3.1s5.3,1.4,5.3,3.1C40,31.4,37.7,32.8,34.7,32.8z
				 M34.7,27.6c-2.5,0-4.3,1.1-4.3,2.1s1.8,2.1,4.3,2.1s4.3-1.1,4.3-2.1S37.2,27.6,34.7,27.6z"/>
		</g>
	</g>
</g>
</svg>
