<?xml version="1.0" encoding="utf-8"?>
<!-- Generator: Adobe Illustrator 21.0.2, SVG Export Plug-In . SVG Version: 6.00 Build 0)  -->
<svg version="1.1" id="Capa_1" xmlns="http://www.w3.org/2000/svg" xmlns:xlink="http://www.w3.org/1999/xlink" x="0px" y="0px"
	 viewBox="0 0 58 58" style="enable-background:new 0 0 58 58;" xml:space="preserve">
<style type="text/css">
	.st0{fill:#0575E6;}
	.st1{fill:#00E1FF;}
</style>
<g>
	<path class="st0" d="M57.3,12.4L45.6,0.6c-0.2-0.2-0.7-0.2-1,0L29.3,15.9l-2.7-2.7c-0.1-0.1-0.1-0.1-0.2-0.2l-1.6-0.8l-0.8-0.4
		L3.1,1.5C2.8,1.4,2.5,1.5,2.3,1.6C2.1,1.8,2.1,2.1,2.2,2.4l11.5,23.3c0.1,0.1,0.1,0.1,0.2,0.2l0,0l2.7,2.7L0.6,44.6
		c-0.2,0.2-0.2,0.7,0,1l11.8,11.8c0.2,0.2,0.7,0.2,1,0l15.9-15.9l6.8,6.8c0.2,0.2,0.7,0.2,1,0L49,36.4c0.2-0.2,0.2-0.7,0-1l-6.9-6.8
		l15.3-15.3C57.6,13.1,57.6,12.7,57.3,12.4z M13.8,23l-0.3-0.6L7.2,9.6l3.1-3.1L23,12.8l0.9,0.4c-0.6,0.2-1.2,0.5-1.6,1
		c-0.9,0.9-1.1,2.1-1,2.9c-0.7,0.1-1.3,0.4-1.8,1c-0.7,0.7-1.1,1.8-1.3,2.4c-1.5,0.1-2.7,0.5-3.5,1.3C14.2,22.1,13.9,22.5,13.8,23z
		 M12.9,55.9L2,45.1l7.5-7.5l3.5,3.5c0.2,0.2,0.7,0.2,1,0c0.2-0.2,0.2-0.7,0-1l-3.5-3.5l1.6-1.5l3.5,3.5c0.2,0.2,0.7,0.2,1,0
		c0.2-0.2,0.2-0.7,0-1L13,34.1l1.6-1.6l3.5,3.5c0.2,0.2,0.7,0.2,1,0s0.2-0.7,0-1l-3.5-3.5l1.6-1.6l6.5,6.8c0.2,0.2,0.7,0.2,1,0l0,0
		l3.7,3.7L12.9,55.9z M47.4,35.9L36.6,46.8l-6.4-6.3l-1-1L18.4,28.6l-0.9-1L15,25.1c-0.1-0.4-0.2-1.6,0.6-2.4
		c0.6-0.6,1.6-0.9,3.1-0.9c0.3,0,0.6-0.2,0.7-0.5c0,0,0.2-1.3,1-2.2c0.4-0.4,1-0.7,1.6-0.6c0.2,0,0.4-0.1,0.5-0.2
		c0.1-0.2,0.2-0.4,0.1-0.6c0,0-0.4-1.5,0.6-2.4c0.5-0.5,1.4-0.9,2.6-0.9l2.5,2.5l1,1l10.9,10.9l1,1L47.4,35.9z M41.2,27.7l-7-6.9
		c0.1-0.2,0-0.4-0.2-0.6l-3.5-3.5L32,15l3.5,3.5c0.2,0.2,0.7,0.2,1,0c0.3-0.2,0.2-0.7,0-1L33,14l1.5-1.6L38,16c0.2,0.2,0.7,0.2,1,0
		c0.2-0.2,0.2-0.7,0-1l-3.5-3.5l1.6-1.6l6.7,6.7c0.2,0.2,0.7,0.2,1,0c0.3-0.2,0.2-0.7,0-1L38,9l1.5-1.5l0.1-0.1l3.5,3.5
		c0.2,0.2,0.7,0.2,1,0c0.2-0.2,0.2-0.7,0-1l-3.5-3.5l1.6-1.6l3.5,3.5c0.2,0.2,0.7,0.2,1,0c0.2-0.2,0.2-0.7,0-1L43.1,4l2-2l10.9,10.9
		L41.2,27.7z"/>
	<path class="st1" d="M8.9,44.3c-1.3,1.3-1.3,3.5,0,4.8c1.3,1.3,3.5,1.3,4.8,0c1.3-1.3,1.3-3.5,0-4.8C12.4,42.9,10.2,42.9,8.9,44.3z
		 M12.8,48.2c-0.8,0.8-2.1,0.8-2.9,0S9,46,9.8,45.2c0.8-0.8,2.1-0.8,2.9,0C13.6,46,13.6,47.3,12.8,48.2z"/>
	<path class="st0" d="M52.5,40L40.6,51.8c-0.2,0.2-0.2,0.7,0,1c1.3,1.3,3.9,2.5,6.1,2.5c1.2,0,2.3-0.3,3.1-1.1l5-5
		c2.2-2.2,0.7-7.1-1.4-9.2C53.2,39.7,52.8,39.7,52.5,40z M53.9,48.2l-5,5c-1.4,1.4-4.9,0.5-6.8-0.9l10.8-10.8
		C54.4,43.3,55.3,46.8,53.9,48.2z"/>
	<path class="st1" d="M34.1,36.6l-1-1l-6.9-6.9l-5-5c-0.2-0.2-0.7-0.2-1,0c-0.2,0.2-0.2,0.7,0,1l1.1,1.1l10.9,10.8l1,1l3.7,3.7
		c0.2,0.2,0.7,0.2,1,0c0.2-0.2,0.2-0.7,0-1L34.1,36.6z"/>
	<path class="st1" d="M37.3,31.6L26.4,20.6l-0.9-0.9l-0.1-0.1c-0.2-0.2-0.7-0.2-1,0c-0.3,0.2-0.2,0.7,0,1l0.1,0.1l4.5,4.5l7.3,7.3
		l1,1l3.7,3.7c0.2,0.2,0.7,0.2,1,0c0.3-0.2,0.2-0.7,0-1l-3.7-3.7L37.3,31.6z"/>
	<path class="st1" d="M52,38.5c-0.2-0.2-0.7-0.2-1,0L39.1,50.3c-0.2,0.2-0.2,0.7,0,1c0.2,0.2,0.7,0.2,1,0L52,39.4
		C52.2,39.2,52.2,38.8,52,38.5z"/>
	<path class="st1" d="M50.5,37.1c-0.2-0.2-0.7-0.2-1,0L37.7,48.8c-0.2,0.2-0.2,0.7,0,1c0.2,0.2,0.7,0.2,1,0L50.5,38
		C50.7,37.7,50.7,37.3,50.5,37.1z"/>
</g>
</svg>
